<svg xmlns="http://www.w3.org/2000/svg" viewBox="0 0 376.13 560.24"><defs><style>.cls-1{fill:#fdc93a;}.cls-2{fill:#111;}</style></defs><title>Asset 3</title><g id="Layer_2" data-name="Layer 2"><g id="Layer_1-2" data-name="Layer 1"><path class="cls-1" d="M.15,279.65C.15,192.72.27,105.79,0,18.86,0,7.52,6.19,0,18.73,0q162,.36,324,.14c5.78,0,11.56-.07,17.34,0,9.76.16,15.9,6.3,16.06,16,.08,4.58,0,9.17,0,13.75q0,255.56,0,511.11c0,5.6-.5,10.85-5,15a16.39,16.39,0,0,1-11.39,4.18c-6.1.09-12.21,0-18.32,0h-323c-9.36,0-15-3.29-17.37-10.42a23.29,23.29,0,0,1-.9-7.08Q.12,411.2.15,279.65Z"/><path class="cls-2" d="M191.36,282.84C122.27,284.47,64.19,230,62.3,160.4,60.38,90.05,115.72,32.91,183.85,30.92c70.36-2.05,128.21,52.66,130,122.31A126.06,126.06,0,0,1,191.36,282.84Zm-3.26-25.53c54.54.52,100.3-44.68,100.68-99.46.38-55.41-44.16-101-99.22-101.56-56-.57-101.66,43.83-102,99.6A100.4,100.4,0,0,0,188.1,257.31Z"/><path class="cls-2" d="M310.57,453.23v-3.48q0-12.42,0-24.85c0-6.42,1.41-7.79,7.93-7.82,5.45,0,10.9,0,16.35,0,10.17,0,10.57.41,10.56,10.43q0,41,0,82.09c0,4.36.07,8.72,0,13.08-.08,4.11-1.68,5.83-5.78,5.89q-11.61.16-23.22,0c-4.16-.07-5.7-1.71-5.78-5.87-.1-5.34.06-10.69-.09-16a7.4,7.4,0,0,0-1.25-4.21c-7.18-8.9-14.51-17.69-21.81-26.5a21.56,21.56,0,0,0-2.18-1.88c-.09,1.69-.2,2.81-.2,3.93,0,14.29,0,28.57,0,42.85,0,6.36-1.38,7.74-7.65,7.77-6.86,0-13.73,0-20.6,0-5-.05-6.6-1.6-6.61-6.43q0-49.21,0-98.44c0-4.95,1.74-6.57,6.8-6.64,4.36-.05,8.73.2,13.08-.07,5.3-.34,9.2,1.84,12.52,5.72,8.23,9.59,16.56,19.11,24.79,28.7a14.83,14.83,0,0,1,1.56,2.89Z"/><path class="cls-2" d="M127.14,446.57c0,5.67-.07,11.34,0,17a49.46,49.46,0,0,1-4,19.7Q115,503.1,107.23,523c-1.41,3.61-3.83,5.53-7.61,5.54q-20.61.09-41.21,0c-3.42,0-6-1.42-7.4-4.85-5.86-14.79-12-29.47-17.53-44.38a47.54,47.54,0,0,1-2.63-15c-.35-13.18-.14-26.38-.11-39.57,0-6.23,1.49-7.68,7.75-7.7q10.78,0,21.58,0c5.47,0,7.32,1.83,7.34,7.25,0,11.66.15,23.33,0,35A45,45,0,0,0,70,476c2.06,5.5,3.83,11.12,5.69,16.7.61,1.84,1.7,3.36,3.73,2.77a5.53,5.53,0,0,0,3.38-2.72q4.16-11.7,7.76-23.59a21.39,21.39,0,0,0,.55-6.16c0-12.64,0-25.29,0-37.94,0-6.5,1.43-8,7.8-8q10.45,0,20.93,0c5.6,0,7.15,1.53,7.21,7.23.07,7.41,0,14.83,0,22.24Z"/><path class="cls-2" d="M145.23,472.82q0-23.55,0-47.09c0-7.41,1.22-8.64,8.47-8.64,15.36,0,30.74-.21,46.1.12a74.73,74.73,0,0,1,16.72,2.47c11,2.8,16.75,11,17.54,21.59a180.62,180.62,0,0,1-.63,34.8c-1.38,11.52-9.47,18.72-21,20.14-8.94,1.1-18,1-27.05,1.27-4.5.15-4.51,0-4.51,4.48,0,6.75,0,13.51,0,20.27,0,4.66-1.68,6.31-6.35,6.37-7.19.09-14.39.07-21.58,0-6.32,0-7.64-1.29-7.67-7.75C145.19,504.86,145.23,488.84,145.23,472.82Zm35.37-15.06h0c0,2.94-.16,5.9.1,8.82.08.93,1.25,2.49,2,2.52,4.24.19,8.5.14,12.74-.07a5.24,5.24,0,0,0,5.35-5.19,78,78,0,0,0-.06-12c-.28-3.22-2.46-5-5.81-5-3.92,0-7.85,0-11.78-.07-1.84,0-2.54.78-2.51,2.55C180.63,452.08,180.6,454.92,180.6,457.76Z"/><path class="cls-2" d="M197.24,358.22c0-12.86,0-25.72,0-38.58,0-5,1-5.93,6-5.94q27.14,0,54.28,0c5.23,0,6.28,1.06,6.37,6.35.07,3.81.06,7.63,0,11.44-.07,4.62-1.27,5.88-5.82,5.9-9.7.06-19.4.18-29.1,0-3.71-.09-3.74,1.88-3.66,4.51.08,2.44-.39,4.77,3.52,4.59,6.42-.29,12.86-.12,19.29-.07,4.37,0,5.49,1.11,5.56,5.37.06,3.92.06,7.85,0,11.77-.06,4.19-1.27,5.52-5.45,5.59-6.43.12-12.87.14-19.3,0-2.67-.05-3.66.89-3.63,3.6.08,7.5-.12,6.2,6.05,6.25,8.94.07,17.88,0,26.82,0,4.15,0,5.53,1.31,5.65,5.43.12,4.35.11,8.72,0,13.07-.11,4-1.47,5.36-5.4,5.37q-28,.09-55.92,0c-4,0-5.22-1.35-5.23-5.44C197.21,384.38,197.24,371.3,197.24,358.22Z"/><path class="cls-2" d="M150.13,313.71c9,0,18.09,0,27.14,0,4.87,0,5.82.93,5.87,5.68.06,4.36.07,8.72,0,13.08-.08,3.79-1.13,4.87-4.94,4.9-9.81.08-19.62,0-29.43.06-3.83,0-3.67,0-3.88,4.86-.14,3,.63,4.27,3.94,4.14,6.31-.25,12.64-.11,19-.06,4.22,0,5.44,1.26,5.52,5.49q.11,5.88,0,11.77c-.06,4-1.31,5.35-5.3,5.44-6.32.15-12.65.21-19,0-3.1-.08-4.25.88-4.15,4.08.2,6.5-.38,5.8,5.84,5.81,8.94,0,17.87,0,26.81,0,4.46,0,5.56,1.15,5.6,5.66s.08,8.94,0,13.41c-.09,3.48-1.31,4.77-4.82,4.78q-28.29.11-56.58,0c-4,0-5-1.38-5-6.33q0-32.21,0-64.42c0-4.15,0-8.29,0-12.43,0-4.94,1.06-6,5.94-6,9.15,0,18.31,0,27.47,0Z"/><path class="cls-2" d="M312.67,378.4c1.65.11,2.89.26,4.13.27,7.53,0,15.05,0,22.57,0,4.76,0,6,1.28,6,6.08,0,4.36.06,8.72,0,13.08-.07,3.61-1.36,5.05-5,5.06q-30.27.09-60.52,0c-3.53,0-5-1.45-5.05-5a146.14,146.14,0,0,1,.11-16.35,15.24,15.24,0,0,1,3.08-7.68c8.9-11.16,18.09-22.1,27.16-33.13.51-.62.89-1.36,1.68-2.57-1.71-.1-2.85-.21-4-.22-6.76,0-13.52.05-20.28,0-4.28,0-5.47-1.24-5.52-5.46-.06-4.58-.07-9.17,0-13.74.08-3.66,1.32-4.94,5-4.95q28-.08,55.94,0c3.88,0,5.09,1.25,5.14,5.15.08,6,.35,12-.14,18a15.47,15.47,0,0,1-3.25,7.89c-8.55,10.74-17.41,21.23-26.15,31.83A13.23,13.23,0,0,0,312.67,378.4Z"/><path class="cls-2" d="M68.18,313.7H98.91c5.42,0,6.46,1.08,6.47,6.55,0,4.25.07,8.51,0,12.75-.09,3.4-1.42,4.77-4.82,4.86-4.68.11-9.37.18-14,0-2.85-.12-3.77.79-3.76,3.7.12,17.66.07,35.31.06,53a40.89,40.89,0,0,1-.15,4.57c-.25,2.24-1.57,3.7-3.84,3.73-7.08.1-14.16.13-21.24,0-3-.05-4.17-2.13-4.26-4.82-.12-3.27-.06-6.54-.06-9.81,0-15.47-.07-30.95.05-46.42,0-3-.85-4.07-3.89-3.92-4.46.22-8.94.12-13.4,0-3.83-.07-5.1-1.3-5.2-5.15-.13-4.46-.1-8.93,0-13.4s1.27-5.6,5.72-5.62C47,313.67,57.61,313.7,68.18,313.7Z"/><path class="cls-2" d="M187.85,199.05a42.09,42.09,0,0,1-41-33.47c-3.95-19.74,6.17-39.57,24.4-47.24,11.06-4.65,22.26-4.48,33.47-.13a10.47,10.47,0,0,0,5.88.47c13.54-3.34,27-6.86,40.51-10.46,2.36-.63,4-.39,5.11,1.92.57,1.17,1.37,2.22,2,3.35,3.16,5.47,3.19,5.5-1,10.44-8.21,9.61-16.53,19.13-24.64,28.83a11,11,0,0,0-2.41,5.77C228.42,182,210.69,199.09,187.85,199.05Zm.23-22.7a19.36,19.36,0,1,0-19.4-19.24A19.32,19.32,0,0,0,188.08,176.35Z"/><path class="cls-2" d="M113.15,191.82c-10.59-23.83-11.05-47.93.84-71.35C129.11,90.68,154,75,187.49,74.31c23.66-.49,43.85,8.35,60.74,25.85a18,18,0,0,1-2.8,1.41c-6,1.61-12.06,3-18,4.79-3.53,1.08-6.37.47-9.54-1.32-19.37-10.92-39.37-10.6-59.06-1.51-21,9.72-34.33,26.61-41.32,48.58A83.77,83.77,0,0,0,114.09,186c.19,1.89.21,3.81.31,5.71Z"/></g></g></svg>