<svg xmlns="http://www.w3.org/2000/svg" viewBox="0 0 444.57 444.62"><defs><style>.cls-1{fill:#fdc93a;}</style></defs><title>Asset 1</title><g id="Layer_2" data-name="Layer 2"><g id="Layer_1-2" data-name="Layer 1"><path class="cls-1" d="M222.35,0C346.19.31,445,100.55,444.56,223.15,444.12,346.06,344,446.42,218.9,444.6A221.88,221.88,0,0,1,0,220.61C.82,98,100.42.09,222.35,0ZM43.16,222.17c.37,99.64,80.45,179.49,179.74,179.18,98.38-.31,178.43-80.16,178.44-178.85A179,179,0,0,0,222.7,43.29C122.25,43.13,43.38,124.31,43.16,222.17Z"/><path class="cls-1" d="M221.16,296.55c-25.41-1.13-47-12-61.44-34.9-12-19.13-14.72-40-7.64-61.65,6.81-20.83,20.42-36,40.51-44.87a71,71,0,0,1,50.09-3.3c4,1.19,7.84,3.12,11.82,4.52a8.44,8.44,0,0,0,4.5.48c11.08-2.84,22.11-5.91,33.17-8.82,15-3.93,30-7.76,45-11.68,1.67-.43,2.81-.24,3.77,1.36,3.09,5.13,6.23,10.22,9.47,15.26a2.64,2.64,0,0,1-.25,3.71q-17.77,20.6-35.47,41.26c-5.62,6.55-11.32,13-16.8,19.7a8.85,8.85,0,0,0-1.85,5c-.65,22.2-8.83,40.89-25.62,55.63C256.73,290.25,240.55,295.76,221.16,296.55Zm1.47-38.63c19-.18,35-16.35,34.85-35.27a35.28,35.28,0,1,0-34.85,35.27Z"/><path class="cls-1" d="M327.77,122.47c-1.6.46-2.83.84-4.08,1.17-12.86,3.37-25.71,6.77-38.6,10a5.54,5.54,0,0,1-3.92-.64,107.39,107.39,0,0,0-68.39-17.33,123.39,123.39,0,0,0-36.38,8.55,131.74,131.74,0,0,0-50.12,35.63A143.42,143.42,0,0,0,100,203.22a149.54,149.54,0,0,0-10,66.83c.4,5.25,1,10.48,1.48,15.41-25.44-47-22.78-129.55,42.89-179.18C201.73,55.36,286.49,76,327.77,122.47Z"/></g></g></svg>